<svg width="192" height="192" viewBox="0 0 192 192" fill="none" xmlns="http://www.w3.org/2000/svg">
<g clip-path="url(#clip0_23_2834)">
<path d="M0 192V150.758L150.758 0H192L0 192Z" fill="url(#paint0_linear_23_2834)"/>
<g opacity="0.3">
<path opacity="0.3" d="M137.266 33.7045C134.434 30.9198 130.401 27.2228 126.656 24.1021L87.6219 63.1358C84.7412 68.7052 82.7727 73.0263 82.5806 73.3624L81.1883 76.3871L97.3683 92.5672L100.201 91.6069C100.249 91.6069 100.297 91.5589 100.345 91.5589L147.205 44.6992C144.66 41.3864 141.155 37.4974 137.266 33.7045Z" fill="black"/>
<path opacity="0.3" d="M92.7592 99.1446L93.7194 96.3119L77.5394 80.1318L74.5146 81.5242C74.1786 81.6682 69.8575 83.6367 64.2881 86.5654L25.1583 125.695C28.087 129.344 31.6399 133.329 34.8087 136.402C37.7374 139.283 42.0585 143.124 45.8995 146.148L92.7592 99.2886C92.7592 99.1926 92.7592 99.1446 92.7592 99.1446Z" fill="black"/>
</g>
<path d="M81.8604 27.1748C80.8042 27.2228 79.5079 28.087 78.4516 32.7922C77.7794 35.913 77.7314 40.9062 78.3076 48.156C79.2678 59.775 84.261 71.922 84.261 71.922L91.7029 71.7299L100.201 32.7922C100.249 32.8402 83.4448 27.5109 81.8604 27.1748Z" fill="url(#paint1_linear_23_2834)"/>
<path d="M81.8604 27.1748C80.8042 27.2228 79.5079 28.087 78.4516 32.7922C77.7794 35.913 77.7314 40.9062 78.3076 48.156C79.2678 59.775 84.261 71.922 84.261 71.922L91.7029 71.7299L100.201 32.7922C100.249 32.8402 83.4448 27.5109 81.8604 27.1748Z" fill="url(#paint2_linear_23_2834)"/>
<path d="M91.943 72.018L84.165 72.2101C84.021 71.874 84.069 72.018 83.973 71.7299C83.877 71.4419 83.7329 71.1058 83.5889 70.7697C83.2048 69.7134 82.7727 68.5131 82.3406 67.1688C81.0923 63.4239 79.988 59.4869 79.2198 55.5979C78.6917 53.0533 78.3556 50.5566 78.1635 48.2521C77.5874 41.0023 77.6354 35.961 78.3076 32.7922C79.2198 28.7112 80.3721 27.1268 81.9085 27.0308C87.1418 28.4711 92.3271 30.1515 97.4644 31.7839C98.2326 32.024 98.9047 32.2161 99.5289 32.4561L100.537 32.7922L91.943 72.018ZM84.4531 71.7299L91.5589 71.5859L99.961 33.0323C98.0405 32.4081 98.9047 32.6962 97.3203 32.2161C95.1598 31.5439 92.9992 30.8717 90.9827 30.2476C88.6782 29.5274 86.4216 28.8072 84.117 28.135C83.6369 27.991 82.9647 27.799 82.4366 27.6549C81.5724 27.4149 81.5724 27.5109 80.7562 27.991C79.5079 29.3353 79.1238 31.1598 78.7397 32.8882C78.0675 36.009 78.0195 41.0023 78.5956 48.2041C78.7877 50.5086 79.1238 52.9572 79.6519 55.5019C80.4201 59.3909 81.5244 63.2798 82.7727 67.0248C83.2048 68.3211 83.6369 69.5214 84.021 70.5777C84.165 70.9618 84.3091 71.2498 84.4051 71.5379L84.4531 71.7299Z" fill="#FFA7A9"/>
<path d="M28.3271 80.7081C28.3751 79.6518 29.2393 78.3555 33.9445 77.2993C37.0653 76.6271 42.0585 76.5791 49.3083 77.1552C60.9272 78.1155 73.0743 83.1087 73.0743 83.1087L72.8822 90.5506L33.9445 99.0487C33.9445 99.0967 28.6632 82.2925 28.3271 80.7081Z" fill="url(#paint3_linear_23_2834)"/>
<path d="M28.3271 80.7081C28.3751 79.6518 29.2393 78.3555 33.9445 77.2993C37.0653 76.6271 42.0585 76.5791 49.3083 77.1552C60.9272 78.1155 73.0743 83.1087 73.0743 83.1087L72.8822 90.5506L33.9445 99.0487C33.9445 99.0967 28.6632 82.2925 28.3271 80.7081Z" fill="url(#paint4_linear_23_2834)"/>
<path d="M73.1703 90.7905L33.8004 99.3846C33.4644 98.3764 33.1763 97.3201 32.8402 96.3119C32.168 94.1513 31.4959 91.9908 30.8717 89.9743C30.1515 87.6697 29.4313 85.3651 28.7592 83.1086C28.5671 82.4364 28.135 81.4281 28.087 80.756C28.183 79.2196 29.7674 78.0673 33.8484 77.1551C37.0172 76.4829 42.0585 76.3869 49.3083 77.011C51.6609 77.2031 54.1095 77.5392 56.6541 78.0673C60.5431 78.8355 64.4801 79.9398 68.225 81.1881C69.5214 81.6202 70.7217 82.0523 71.8259 82.4364C72.21 82.5804 72.5461 82.7245 72.7862 82.8205C73.0743 82.9645 72.9302 82.8685 73.2663 83.0125L73.1703 90.7905ZM34.1365 98.8085L72.6902 90.4064L72.8342 83.3006L72.6421 83.2046C72.3541 83.1086 72.018 82.9645 71.6819 82.8205C70.6256 82.4364 69.4253 82.0043 68.129 81.5722C64.3841 80.3239 60.4951 79.2196 56.6061 78.4514C54.0615 77.9233 51.6129 77.5872 49.3083 77.3951C42.1065 76.819 37.1133 76.867 33.9925 77.5392C32.2641 77.9233 30.4396 78.3554 29.0953 79.5557C28.5671 80.2758 28.5191 80.4679 28.7592 81.2361C28.9032 81.7162 29.0953 82.3884 29.2393 82.9165C29.6234 84.2608 30.0555 85.6052 30.4876 86.9495C31.4478 89.9743 32.3601 93.047 33.3203 96.0718C33.5604 96.84 33.8004 97.5122 33.9925 98.1363L34.1365 98.8085Z" fill="#FFA7A9"/>
<path d="M108.651 149.461C108.651 149.461 113.404 114.749 93.3834 91.1748C88.8702 92.4711 73.0263 95.976 72.7862 96.2161C94.6317 120.03 76.4831 154.119 76.4831 154.119L94.3916 142.164L108.651 149.461Z" fill="url(#paint5_linear_23_2834)"/>
<path opacity="0.4" d="M52.8612 128.768C54.3496 129.296 57.2303 128.528 59.0067 125.887C60.5911 123.487 62.4636 117.005 66.4486 109.947C71.2018 101.497 92.9032 88.4858 92.9032 88.4858L100.297 101.305C100.297 101.305 97.5604 104.138 93.0473 106.49C93.4794 112.348 93.7674 118.925 93.3833 124.687C92.6152 136.258 87.958 139.667 84.4531 140.099C82.8687 140.291 77.1553 137.458 69.4734 134.673C64.8642 133.089 54.4456 130.112 52.8612 128.768Z" fill="#121214"/>
<path d="M23.5739 115.229C22.9017 114.028 22.0855 110.812 26.5026 106.395C29.4314 103.466 35.5289 98.9527 43.931 94.4395C57.3263 87.2858 73.5064 82.8687 73.5064 82.8687L79.3638 94.6316L42.6347 131.361C42.6827 131.409 25.0623 116.717 23.5739 115.229Z" fill="url(#paint6_linear_23_2834)"/>
<path d="M42.6827 131.697C40.6662 130.016 41.6744 130.833 39.7539 129.248C37.6414 127.52 35.5289 125.743 33.5124 124.015C30.9197 121.854 28.3271 119.646 25.7824 117.437C25.2543 117.005 23.8139 115.853 23.3818 115.277C22.1335 113.02 22.7097 109.851 26.3586 106.202C29.7194 102.842 36.2011 98.2805 43.835 94.1995C47.7719 92.0869 52.189 90.1185 56.8942 88.246C60.8312 86.6616 64.8162 85.3172 68.5611 84.1169C69.8575 83.6848 71.0578 83.3488 72.114 83.0127C72.4981 82.9166 72.8342 82.8206 73.0743 82.7246C73.4104 82.6286 73.2183 82.6766 73.6024 82.5806L79.6519 94.6796L42.6827 131.697ZM42.6827 131.073L79.1238 94.6316L73.4104 83.2047L73.2663 83.2527C72.9783 83.3488 72.6422 83.4448 72.3061 83.5408C71.2498 83.8289 70.0495 84.213 68.7532 84.6451C65.0083 85.8454 61.0713 87.2377 57.1343 88.7741C52.4291 90.6466 48.06 92.6151 44.123 94.7276C36.4891 98.7606 30.0555 103.274 26.6947 106.587C24.8702 108.459 22.8057 111.052 23.3338 113.884C23.3818 114.172 23.5739 114.797 23.7659 115.085C23.958 115.373 24.9182 116.093 25.1103 116.285C25.7824 116.861 26.5986 117.581 27.3188 118.157C29.2873 119.838 31.2078 121.47 33.1763 123.103C33.4164 123.295 33.6084 123.487 33.8485 123.631C35.865 125.311 37.9775 127.088 40.09 128.816C40.8102 129.44 41.4824 130.016 42.1065 130.497L42.6827 131.073Z" fill="#FFA7A9"/>
<path d="M50.0285 129.872C51.5169 130.4 54.3976 129.632 56.174 126.992C57.7584 124.591 59.6309 118.109 63.6159 111.052C68.3691 102.602 77.2033 92.231 77.2033 92.231L89.2063 96.552C89.2063 96.552 91.3188 114.268 90.5026 125.839C89.7344 137.41 85.0772 140.819 81.5724 141.251C79.988 141.443 74.2745 138.611 66.5926 135.826C62.0315 134.193 51.6129 131.217 50.0285 129.872Z" fill="url(#paint7_linear_23_2834)"/>
<path d="M28.1351 80.6602C31.1118 85.3653 38.8897 86.3256 47.0038 85.9415C56.7022 85.4614 74.6587 83.6849 74.6587 83.6849L77.3954 96.168C77.3954 96.168 63.5199 107.355 53.2933 112.828C43.0668 118.302 38.5056 119.55 36.2491 116.765C35.2408 115.517 32.9363 109.227 31.2078 101.209C30.1516 96.5041 27.847 82.7247 28.1351 80.6602Z" fill="url(#paint8_linear_23_2834)"/>
<path opacity="0.308" d="M77.1553 95.208C67.937 102.458 58.4786 109.516 47.868 114.557C46.2356 115.325 44.3151 116.141 42.5866 116.717C41.0022 117.198 39.1298 117.63 37.5454 117.005C35.913 116.381 35.3848 115.037 34.7607 113.549C34.5206 112.972 34.2806 112.396 34.0885 111.82C33.3683 109.852 32.7922 107.595 32.216 105.579C34.7127 107.739 37.3053 106.587 39.0818 105.435C41.1463 104.042 43.931 101.546 47.1478 99.049C50.3166 96.6004 54.3016 94.5358 57.0383 93.4316C60.8792 91.8472 67.7449 88.6784 75.1388 85.2695L77.1553 95.208Z" fill="url(#paint9_linear_23_2834)"/>
<path d="M76.2431 87.7178L68.081 92.3749L77.8755 90.7425L67.6009 99.6728L80.084 93.0471L66.6887 108.411L81.8125 94.8716L78.9317 103.466L83.877 96.792L78.4996 116.477L86.5176 97.0321C86.6137 96.9841 76.2431 87.7178 76.2431 87.7178Z" fill="#80000D"/>
<path d="M73.8425 84.0206L73.3143 84.0687C72.21 84.1647 70.9617 84.3087 69.6174 84.4047C65.7764 84.7408 61.9355 85.0769 58.2866 85.413C57.9985 85.461 57.6624 85.461 57.3743 85.509C53.2933 85.8451 49.7884 86.0852 47.0518 86.2292C42.6347 86.3732 38.0255 86.4693 33.8004 85.0289C31.832 84.3567 29.5754 83.0604 28.3271 81.284C27.991 80.5158 28.183 80.8519 28.2311 80.1797L28.5191 80.6598C31.1118 84.7888 37.4013 86.2292 47.0037 85.7491C49.6924 85.605 53.1973 85.365 57.2783 85.0289C57.5664 85.0289 57.9025 84.9809 58.1905 84.9329C61.7914 84.6448 65.6804 84.3087 69.5214 83.9246C70.8657 83.7806 72.114 83.6846 73.2183 83.5885L73.6984 83.5405L73.7464 83.6846L73.8425 84.0206Z" fill="#FFA7A9"/>
<path opacity="0.311" d="M75.7149 134.625C74.2745 135.97 72.4501 137.122 70.4336 137.266C67.4568 136.114 68.7532 136.594 66.4966 135.777C61.9835 134.145 51.5649 131.168 49.9805 129.824C51.4688 130.352 54.3496 129.584 56.126 126.943C57.7104 124.543 59.5829 118.061 63.5679 111.003C66.3526 106.106 69.7134 101.545 73.1703 97.0798C74.0825 95.8795 75.0427 94.6792 76.003 93.527C76.3871 93.0948 76.7232 92.5667 77.1553 92.1826L88.9182 96.4077V96.4557C86.9497 105.434 84.5971 114.316 81.5244 122.958C80.5641 125.695 79.7479 127.519 78.6436 130.064C78.4996 130.352 77.8754 131.696 77.6354 132.129C77.3473 132.609 77.0592 133.041 76.7712 133.473L75.7149 134.625Z" fill="url(#paint10_linear_23_2834)"/>
<path d="M23.5739 115.229C25.0622 116.717 28.8072 117.389 32.4081 115.229C35.6249 113.308 41.3863 106.682 50.0285 100.537C60.3031 93.191 76.4831 85.8452 76.4831 85.8452L88.2461 97.6082C88.2461 97.6082 80.9002 119.646 73.5544 132.849C66.2085 146.052 58.8627 147.541 54.4456 146.052C52.4771 145.38 44.7952 139.475 38.1215 132.945C31.4478 126.367 24.7262 117.677 23.5739 115.229Z" fill="url(#paint11_linear_23_2834)"/>
<path d="M75.2348 86.7095C73.7945 87.3816 74.6107 86.9975 72.8342 87.8617C69.9535 89.2541 66.9287 90.7905 63.904 92.4229C61.4074 93.7672 59.0548 95.1116 56.8462 96.4079C54.3496 97.8962 52.093 99.3366 50.1726 100.729C45.6594 103.898 41.5784 107.595 37.5454 111.292C34.9047 113.692 33.6564 114.748 32.5521 115.421C30.3436 116.669 26.8387 117.533 24.4861 116.141C23.814 115.805 23.4299 115.373 23.3819 115.325L23.766 115.037C25.3984 116.669 29.1913 116.861 32.3121 114.989C33.3684 114.364 34.6167 113.308 37.2573 110.907C40.042 108.411 42.7787 105.818 45.7074 103.514C47.7239 101.881 48.156 101.593 49.9325 100.297C51.901 98.9045 54.1576 97.4161 56.6542 95.9278C58.8627 94.5834 61.2153 93.2871 63.7119 91.9428C66.7367 90.3104 69.7615 88.774 72.6422 87.3816C74.3706 86.5174 73.6024 86.9015 74.9948 86.2773L75.2348 86.7095Z" fill="#FFA7A9"/>
<path d="M108.939 149.989L94.3916 142.595L76.9633 154.646L76.4832 154.166C84.1651 148.741 77.9235 152.774 94.3436 141.779L108.363 148.933C108.459 148.213 108.411 148.597 108.459 147.781C108.555 146.436 108.651 144.9 108.747 143.171C108.891 138.274 108.699 132.993 107.979 127.568C106.443 116.861 103.466 106.058 97.2243 97.0319C97.6084 96.7438 97.4164 96.8878 97.8485 96.5518L98.0405 96.7918C104.138 106.298 107.067 116.333 108.699 127.423C109.419 132.897 109.659 138.178 109.467 143.123C109.419 144.852 109.323 146.388 109.179 147.781C109.131 148.261 109.083 148.693 109.035 149.029C108.987 149.269 108.987 149.413 108.987 149.461L108.939 149.989Z" fill="url(#paint12_linear_23_2834)"/>
<path opacity="0.25" d="M82.3886 102.745C77.0593 98.3282 71.6339 90.9344 70.2416 86.2772C68.8492 81.6201 72.018 81.428 77.2993 85.8451C82.6287 90.2622 88.054 97.6561 89.4464 102.313C90.8867 106.97 87.7179 107.162 82.3886 102.745Z" fill="#121214"/>
<path d="M150.614 107.499C150.614 107.499 115.901 112.252 92.3271 92.2309C93.6234 87.7178 97.1283 71.8738 97.3683 71.6338C121.182 93.4792 155.271 75.3307 155.271 75.3307L143.316 93.2392L150.614 107.499Z" fill="url(#paint13_linear_23_2834)"/>
<path opacity="0.4" d="M130.017 51.6128C130.545 53.1012 129.776 55.9819 127.136 57.7583C124.735 59.3427 118.254 61.2152 111.196 65.2002C102.746 69.9534 91.1268 90.0704 91.1268 90.0704L102.026 99.0006C102.026 99.0006 105.914 96.2159 108.363 91.7988C113.98 92.1829 120.654 92.423 125.984 92.0869C137.554 91.3187 140.963 86.6616 141.395 83.1567C141.587 81.5723 138.755 75.8589 135.97 68.1769C134.338 63.6158 131.361 53.1972 130.017 51.6128Z" fill="#121214"/>
<path d="M151.142 107.787L143.748 93.239L155.799 75.8107L155.319 75.3306C149.893 83.0125 153.926 76.7709 142.932 93.191L150.085 107.211C149.365 107.307 149.749 107.259 148.933 107.307C147.589 107.403 146.052 107.499 144.324 107.595C139.427 107.739 134.146 107.547 128.72 106.826C118.013 105.29 107.211 102.313 98.1845 96.0718C97.8964 96.4559 98.0405 96.2638 97.7044 96.6959L97.9445 96.888C107.451 102.985 117.485 105.914 128.576 107.547C134.049 108.267 139.331 108.507 144.276 108.315C146.004 108.267 147.541 108.171 148.933 108.027C149.413 107.979 149.845 107.931 150.182 107.883C150.422 107.835 150.566 107.835 150.614 107.835L151.142 107.787Z" fill="url(#paint14_linear_23_2834)"/>
<path d="M116.381 22.4696C115.181 21.7975 111.964 20.9813 107.547 25.3984C104.618 28.3271 100.105 34.4246 95.5919 42.8267C88.4381 56.2221 84.021 72.4021 84.021 72.4021L95.784 78.2596L132.513 41.5304C132.513 41.5304 117.821 23.91 116.381 22.4696Z" fill="url(#paint15_linear_23_2834)"/>
<path d="M132.849 41.5783C131.169 39.5618 131.985 40.57 130.401 38.6495C128.672 36.537 126.896 34.4245 125.167 32.408C123.007 29.8153 120.798 27.2227 118.59 24.678C118.158 24.1499 117.005 22.7095 116.429 22.2774C114.173 21.0291 110.956 21.6053 107.355 25.2542C103.994 28.615 99.4329 35.0966 95.3518 42.7306C93.2393 46.6675 91.2708 51.0846 89.3983 55.7898C87.814 59.7268 86.4696 63.7118 85.2693 67.4567C84.8372 68.7531 84.5011 69.9534 84.165 71.0096C84.069 71.3937 83.973 71.7298 83.877 71.9699C83.7809 72.3059 83.829 72.1139 83.7329 72.498L95.832 78.5475L132.849 41.5783ZM132.225 41.5303L95.7839 77.9714L84.3571 72.2579L84.4051 72.1139C84.5011 71.8258 84.5971 71.4897 84.6932 71.1537C84.9812 70.0974 85.3653 68.8971 85.7975 67.6008C86.9978 63.8558 88.3901 59.9188 89.9265 55.9819C91.799 51.2767 93.7674 46.9076 95.88 42.9706C99.961 35.3847 104.426 28.9511 107.787 25.5903C109.659 23.7658 112.252 21.7013 115.085 22.2294C115.373 22.2774 115.997 22.4695 116.285 22.6615C116.573 22.8536 117.293 23.8138 117.485 24.0059C118.062 24.678 118.782 25.4942 119.358 26.2144C121.038 28.1829 122.671 30.1034 124.303 32.0719C124.495 32.312 124.687 32.504 124.831 32.7441C126.512 34.7606 128.288 36.8731 130.016 38.9856C130.641 39.7058 131.217 40.378 131.697 41.0021L132.225 41.5303Z" fill="#FFA7A9"/>
<path d="M131.025 48.876C131.553 50.3643 130.785 53.2451 128.144 55.0215C125.743 56.6059 119.262 58.4784 112.204 62.4634C103.754 67.2166 93.3833 76.0508 93.3833 76.0508L97.7044 88.0538C97.7044 88.0538 115.421 90.1663 126.992 89.3501C138.563 88.5819 141.972 83.9247 142.404 80.4199C142.596 78.8355 139.763 73.122 136.978 65.4401C135.346 60.879 132.369 50.4604 131.025 48.876Z" fill="url(#paint16_linear_23_2834)"/>
<path d="M81.8125 27.0306C86.5177 30.0073 87.4779 37.7853 87.0938 45.8993C86.6137 55.5977 84.8372 73.5542 84.8372 73.5542L97.3204 76.2909C97.3204 76.2909 108.507 62.4154 113.981 52.1889C119.454 41.9623 120.702 37.4012 117.918 35.1446C116.669 34.1364 110.38 31.8318 102.362 30.1034C97.6564 29.0471 83.877 26.6945 81.8125 27.0306Z" fill="url(#paint17_linear_23_2834)"/>
<path opacity="0.308" d="M96.3601 76.0027C103.61 66.7844 110.668 57.326 115.709 46.7154C116.477 45.083 117.293 43.1625 117.869 41.4341C118.35 39.8497 118.782 37.9772 118.158 36.3928C117.533 34.7604 116.189 34.2323 114.701 33.6081C114.125 33.3681 113.548 33.128 112.972 32.9359C111.004 32.2158 108.747 31.6396 106.731 31.0635C108.891 33.5601 107.739 36.1528 106.587 37.9292C105.194 39.9937 102.698 42.7784 100.201 45.9952C97.7524 49.164 95.6879 53.149 94.5836 55.8857C92.9992 59.7266 89.8305 66.5924 86.4216 73.9862L96.3601 76.0027Z" fill="url(#paint18_linear_23_2834)"/>
<path d="M88.8702 75.1389L93.5274 66.9768L91.895 76.7713L100.825 66.4967L94.1995 78.9798L109.563 65.5845L96.024 80.7083L104.618 77.8275L97.9445 82.8208L117.629 77.4434L98.1845 85.4614C98.0885 85.4614 88.8702 75.1389 88.8702 75.1389Z" fill="#80000D"/>
<path d="M85.1253 72.69L85.1733 72.1619C85.2693 71.0576 85.4134 69.8093 85.5094 68.465C85.8455 64.624 86.1816 60.783 86.5176 57.1341C86.5656 56.846 86.5656 56.51 86.6137 56.2219C86.9497 52.1409 87.1898 48.636 87.3338 45.8993C87.4779 41.4822 87.5739 36.8731 86.1335 32.648C85.4614 30.6795 84.1651 28.4229 82.3886 27.1746C81.6204 26.8385 81.9565 27.0306 81.2843 27.0786L81.7645 27.3667C85.8935 29.9593 87.3338 36.2489 86.8537 45.8513C86.7097 48.54 86.4696 52.0448 86.1335 56.1259C86.1335 56.4139 86.0855 56.75 86.0375 57.0381C85.7494 60.639 85.4134 64.528 85.0293 68.3689C84.8852 69.7133 84.7892 70.9616 84.6932 72.0659L84.6452 72.546L84.7892 72.594L85.1253 72.69Z" fill="#FFA7A9"/>
<path opacity="0.311" d="M135.778 74.5626C137.122 73.1222 138.275 71.2978 138.419 69.2812C137.266 66.3045 137.746 67.6008 136.93 65.3443C135.298 60.8311 132.321 50.4125 130.977 48.8281C131.505 50.3165 130.737 53.1972 128.096 54.9737C125.695 56.5581 119.214 58.4305 112.156 62.4155C107.259 65.2002 102.698 68.5611 98.2326 72.0179C97.0323 72.9302 95.832 73.8904 94.6797 74.8506C94.2476 75.2347 93.7194 75.5708 93.3354 76.0029L97.5604 87.7659H97.6084C106.587 85.7974 115.469 83.4448 124.111 80.372C126.848 79.4118 128.672 78.5956 131.217 77.4913C131.505 77.3473 132.849 76.7231 133.281 76.483C133.761 76.195 134.194 75.9069 134.626 75.6188L135.778 74.5626Z" fill="url(#paint19_linear_23_2834)"/>
<path d="M116.381 22.4697C117.869 23.9581 118.542 27.703 116.381 31.3039C114.461 34.5207 107.835 40.2822 101.689 48.9243C94.3436 59.1989 86.9977 75.3789 86.9977 75.3789L98.7607 87.1419C98.7607 87.1419 120.798 79.7961 134.002 72.4502C147.205 65.1044 148.693 57.7585 147.205 53.3414C146.533 51.373 141.587 44.6993 133.905 37.2094C127.232 30.5838 118.83 23.574 116.381 22.4697Z" fill="url(#paint20_linear_23_2834)"/>
<path d="M87.862 74.0824C88.5341 72.6421 88.15 73.4583 89.0142 71.6818C90.4066 68.8011 91.943 65.7764 93.5754 62.7516C94.9197 60.255 96.2641 57.9024 97.5604 55.6939C99.0487 53.1972 100.489 50.9407 101.881 49.0202C105.05 44.5071 108.747 40.426 112.444 36.393C114.845 33.7524 115.901 32.5041 116.573 31.3998C117.821 29.1912 118.686 25.6864 117.293 23.3338C116.957 22.6616 116.525 22.2775 116.477 22.2295L116.189 22.6136C117.821 24.246 118.013 28.0389 116.141 31.1597C115.517 32.216 114.461 33.4643 112.06 36.105C109.563 38.8897 106.971 41.6263 104.666 44.5551C103.034 46.5716 102.746 47.0037 101.449 48.7801C100.057 50.7486 98.5686 53.0052 97.0803 55.5018C95.7359 57.7104 94.4396 60.0629 93.0953 62.5596C91.4629 65.5843 89.9265 68.6091 88.5341 71.4898C87.6699 73.2182 88.054 72.45 87.4298 73.8424L87.862 74.0824Z" fill="#FFA7A9"/>
<path opacity="0.25" d="M103.898 81.3804C99.4809 76.051 92.0871 70.6257 87.4299 69.2333C82.7727 67.841 82.5807 71.0098 86.9978 76.2911C91.4149 81.6204 98.8087 87.0458 103.466 88.4381C108.123 89.8305 108.315 86.6617 103.898 81.3804Z" fill="#121214"/>
<path d="M69.8575 82.3406C70.0975 79.5079 81.5244 68.8973 84.069 68.4172C86.6137 67.9851 107.163 86.3736 106.395 89.7345C105.77 92.6152 93.9595 104.09 90.6467 105.482C87.4299 106.827 69.6174 85.1734 69.8575 82.3406Z" fill="url(#paint21_linear_23_2834)"/>
</g>
<defs>
<linearGradient id="paint0_linear_23_2834" x1="-10.3065" y1="181.693" x2="181.692" y2="-10.3063" gradientUnits="userSpaceOnUse">
<stop stop-color="#FF001B"/>
<stop offset="0.16" stop-color="#FF001B"/>
<stop offset="0.327" stop-color="#63000A"/>
<stop offset="0.65" stop-color="#67000B"/>
<stop offset="0.831" stop-color="#FF001B"/>
<stop offset="1" stop-color="#FF001B"/>
</linearGradient>
<linearGradient id="paint1_linear_23_2834" x1="90.1836" y1="29.0038" x2="80.9782" y2="71.2276" gradientUnits="userSpaceOnUse">
<stop stop-color="#580009"/>
<stop offset="0.135" stop-color="#A40011"/>
<stop offset="0.263" stop-color="#D80016"/>
<stop offset="0.562" stop-color="#AA0012"/>
<stop offset="0.991" stop-color="#5B0009"/>
</linearGradient>
<linearGradient id="paint2_linear_23_2834" x1="94.9741" y1="51.8627" x2="77.9067" y2="48.5733" gradientUnits="userSpaceOnUse">
<stop/>
<stop offset="0.2653" stop-color="#525252"/>
<stop offset="0.5274" stop-color="#9C9C9C"/>
<stop offset="0.7427" stop-color="#D2D2D2"/>
<stop offset="0.9032" stop-color="#F3F3F3"/>
<stop offset="0.991" stop-color="white"/>
</linearGradient>
<linearGradient id="paint3_linear_23_2834" x1="30.1426" y1="89.0449" x2="72.3661" y2="79.8396" gradientUnits="userSpaceOnUse">
<stop stop-color="#580009"/>
<stop offset="0.135" stop-color="#A40011"/>
<stop offset="0.263" stop-color="#D80016"/>
<stop offset="0.562" stop-color="#AA0012"/>
<stop offset="0.991" stop-color="#5B0009"/>
</linearGradient>
<linearGradient id="paint4_linear_23_2834" x1="52.7972" y1="93.8023" x2="49.5401" y2="75.3025" gradientUnits="userSpaceOnUse">
<stop/>
<stop offset="0.4425" stop-color="#787878"/>
<stop offset="0.822" stop-color="#D9D9D9"/>
<stop offset="0.991" stop-color="white"/>
</linearGradient>
<linearGradient id="paint5_linear_23_2834" x1="104.095" y1="162.528" x2="74.6631" y2="97.1297" gradientUnits="userSpaceOnUse">
<stop stop-color="#D50016"/>
<stop offset="0.342" stop-color="#FF001B"/>
<stop offset="0.536" stop-color="#C70015"/>
<stop offset="0.729" stop-color="#80000D"/>
</linearGradient>
<linearGradient id="paint6_linear_23_2834" x1="30.9388" y1="122.577" x2="72.0618" y2="81.4545" gradientUnits="userSpaceOnUse">
<stop stop-color="#580009"/>
<stop offset="0.135" stop-color="#A40011"/>
<stop offset="0.263" stop-color="#E60018"/>
<stop offset="0.5" stop-color="#BD0014"/>
</linearGradient>
<linearGradient id="paint7_linear_23_2834" x1="67.7753" y1="136.625" x2="83.0178" y2="94.3142" gradientUnits="userSpaceOnUse">
<stop stop-color="#93000F"/>
<stop offset="0.111" stop-color="#D50016"/>
<stop offset="0.226" stop-color="#FF3B46"/>
<stop offset="0.361" stop-color="#E10017"/>
<stop offset="0.551" stop-color="#990010"/>
<stop offset="0.782" stop-color="#67000B"/>
</linearGradient>
<linearGradient id="paint8_linear_23_2834" x1="30.9593" y1="100.153" x2="76.1193" y2="90.3079" gradientUnits="userSpaceOnUse">
<stop stop-color="#93000F"/>
<stop offset="0.111" stop-color="#D50016"/>
<stop offset="0.226" stop-color="#FF7780"/>
<stop offset="0.361" stop-color="#FF001B"/>
<stop offset="0.551" stop-color="#AD0012"/>
<stop offset="0.865" stop-color="#70000C"/>
</linearGradient>
<linearGradient id="paint9_linear_23_2834" x1="34.8162" y1="111.537" x2="77.096" y2="93.1607" gradientUnits="userSpaceOnUse">
<stop offset="0.139"/>
<stop offset="0.389" stop-color="#464646"/>
<stop offset="0.835"/>
</linearGradient>
<linearGradient id="paint10_linear_23_2834" x1="62.6578" y1="134.185" x2="79.3347" y2="92.9811" gradientUnits="userSpaceOnUse">
<stop offset="0.126"/>
<stop offset="0.498" stop-color="#464646"/>
<stop offset="0.844"/>
</linearGradient>
<linearGradient id="paint11_linear_23_2834" x1="39.4984" y1="134.327" x2="82.2163" y2="91.6089" gradientUnits="userSpaceOnUse">
<stop stop-color="#93000F"/>
<stop offset="0.111" stop-color="#D50016"/>
<stop offset="0.226" stop-color="#FF7780"/>
<stop offset="0.361" stop-color="#FF001B"/>
<stop offset="0.573" stop-color="#C70015"/>
<stop offset="0.857" stop-color="#6C000B"/>
</linearGradient>
<linearGradient id="paint12_linear_23_2834" x1="108.143" y1="121.87" x2="70.2125" y2="133.143" gradientUnits="userSpaceOnUse">
<stop stop-color="#80000D"/>
<stop offset="1" stop-color="#C70015"/>
</linearGradient>
<linearGradient id="paint13_linear_23_2834" x1="163.666" y1="102.955" x2="98.2683" y2="73.524" gradientUnits="userSpaceOnUse">
<stop stop-color="#D50016"/>
<stop offset="0.342" stop-color="#FF001B"/>
<stop offset="0.536" stop-color="#C70015"/>
<stop offset="0.729" stop-color="#80000D"/>
</linearGradient>
<linearGradient id="paint14_linear_23_2834" x1="123.009" y1="107.003" x2="134.281" y2="69.0728" gradientUnits="userSpaceOnUse">
<stop stop-color="#80000D"/>
<stop offset="1" stop-color="#C70015"/>
</linearGradient>
<linearGradient id="paint15_linear_23_2834" x1="123.716" y1="29.8004" x2="82.5932" y2="70.9231" gradientUnits="userSpaceOnUse">
<stop stop-color="#580009"/>
<stop offset="0.135" stop-color="#A40011"/>
<stop offset="0.263" stop-color="#E60018"/>
<stop offset="0.5" stop-color="#BD0014"/>
</linearGradient>
<linearGradient id="paint16_linear_23_2834" x1="137.764" y1="66.6359" x2="95.4537" y2="81.8782" gradientUnits="userSpaceOnUse">
<stop stop-color="#93000F"/>
<stop offset="0.111" stop-color="#D50016"/>
<stop offset="0.226" stop-color="#FF3B46"/>
<stop offset="0.361" stop-color="#E10017"/>
<stop offset="0.551" stop-color="#990010"/>
<stop offset="0.782" stop-color="#67000B"/>
</linearGradient>
<linearGradient id="paint17_linear_23_2834" x1="101.292" y1="29.8202" x2="91.4466" y2="74.9806" gradientUnits="userSpaceOnUse">
<stop stop-color="#93000F"/>
<stop offset="0.111" stop-color="#D50016"/>
<stop offset="0.226" stop-color="#FF7780"/>
<stop offset="0.361" stop-color="#FF001B"/>
<stop offset="0.551" stop-color="#AD0012"/>
<stop offset="0.865" stop-color="#70000C"/>
</linearGradient>
<linearGradient id="paint18_linear_23_2834" x1="112.675" y1="33.6781" x2="94.2984" y2="75.9583" gradientUnits="userSpaceOnUse">
<stop offset="0.139"/>
<stop offset="0.389" stop-color="#464646"/>
<stop offset="0.835"/>
</linearGradient>
<linearGradient id="paint19_linear_23_2834" x1="135.323" y1="61.5195" x2="94.1185" y2="78.1965" gradientUnits="userSpaceOnUse">
<stop offset="0.126"/>
<stop offset="0.498" stop-color="#464646"/>
<stop offset="0.844"/>
</linearGradient>
<linearGradient id="paint20_linear_23_2834" x1="135.307" y1="38.5182" x2="92.7478" y2="81.0774" gradientUnits="userSpaceOnUse">
<stop stop-color="#93000F"/>
<stop offset="0.111" stop-color="#D50016"/>
<stop offset="0.226" stop-color="#FF7780"/>
<stop offset="0.361" stop-color="#FF001B"/>
<stop offset="0.573" stop-color="#C70015"/>
<stop offset="0.857" stop-color="#6C000B"/>
</linearGradient>
<linearGradient id="paint21_linear_23_2834" x1="75.8745" y1="74.9838" x2="99.2259" y2="98.1152" gradientUnits="userSpaceOnUse">
<stop offset="0.011" stop-color="#80000D"/>
<stop offset="0.16" stop-color="#B80013"/>
<stop offset="0.303" stop-color="#E10018"/>
<stop offset="0.5" stop-color="#FF5D61"/>
<stop offset="0.694" stop-color="#E50018"/>
<stop offset="0.853" stop-color="#B60013"/>
<stop offset="1" stop-color="#80000D"/>
</linearGradient>
<clipPath id="clip0_23_2834">
<rect width="192" height="192" fill="white"/>
</clipPath>
</defs>
</svg>
