<svg width="20" height="20" viewBox="0 0 20 20" fill="none" xmlns="http://www.w3.org/2000/svg">
<path d="M2.30007 0.414657C2.0486 0.17178 1.71179 0.0373873 1.3622 0.0404252C1.0126 0.0434631 0.678185 0.183689 0.430974 0.430899C0.183763 0.67811 0.0435374 1.01253 0.0404995 1.36212C0.0374616 1.71172 0.171854 2.04852 0.414731 2.29999L8.11473 9.99999L0.413398 17.7C0.286051 17.823 0.184475 17.9701 0.114596 18.1328C0.0447175 18.2955 0.00793642 18.4704 0.006398 18.6475C0.00485958 18.8245 0.0385949 19.0001 0.105636 19.1639C0.172677 19.3278 0.271681 19.4767 0.396872 19.6019C0.522062 19.727 0.670931 19.826 0.834793 19.8931C0.998655 19.9601 1.17423 19.9939 1.35127 19.9923C1.52831 19.9908 1.70327 19.954 1.86594 19.8841C2.02861 19.8142 2.17574 19.7127 2.29873 19.5853L10.0001 11.8853L17.7001 19.5853C17.9515 19.8282 18.2883 19.9626 18.6379 19.9596C18.9875 19.9565 19.3219 19.8163 19.5692 19.5691C19.8164 19.3219 19.9566 18.9875 19.9596 18.6379C19.9627 18.2883 19.8283 17.9515 19.5854 17.7L11.8854 9.99999L19.5854 2.29999C19.8283 2.04852 19.9627 1.71172 19.9596 1.36212C19.9566 1.01253 19.8164 0.67811 19.5692 0.430899C19.3219 0.183689 18.9875 0.0434631 18.6379 0.0404252C18.2883 0.0373873 17.9515 0.17178 17.7001 0.414657L10.0001 8.11466L2.30007 0.413324V0.414657Z" fill="white"/>
</svg>
